Coordinates
version=1
nRows=26
nColumns=22
inDegrees=yes

Units are S.I. units (second, meters, Newtons, ...)
If the header above contains a line with 'inDegrees', this indicates whether rotational values are in degrees (yes) or radians (no).

endheader
time	pelvis_tilt	pelvis_list	pelvis_rotation	pelvis_tx	pelvis_ty	pelvis_tz	hip_flexion_r	hip_adduction_r	hip_rotation_r	knee_angle_r	ankle_angle_r	subtalar_angle_r	hip_flexion_l	hip_adduction_l	hip_rotation_l	knee_angle_l	ankle_angle_l	subtalar_angle_l	lumbar_extension	lumbar_bending	lumbar_rotation
      5.00000000	     -0.74758904	     -8.99514627	    -88.32333978	      0.83094270	      0.92274227	      0.15924200	    -15.40424051	      9.24151574	      9.28061830	    -31.70711945	      4.04033039	      1.22085914	     16.07766509	     -1.19097874	     -3.33506217	    -25.80534322	      8.11845400	    -10.69886283	    -10.84508778	      4.16549203	     -3.84446608
      5.01000000	     -0.50104704	     -8.91712058	    -88.69398476	      0.83222355	      0.92413613	      0.16823919	    -15.00483182	      8.70110867	      8.84388814	    -32.86311494	      1.96822240	      1.56292176	     15.47021150	     -0.89471394	     -3.74473021	    -25.79432487	      8.82139423	    -11.20865531	    -10.52987317	      3.80918538	     -4.00343572
      5.02000000	     -0.27306395	     -8.83574967	    -89.07083391	      0.83346710	      0.92546809	      0.17697288	    -14.51286301	      8.16086268	      8.37036459	    -34.09470047	     -0.20171131	      1.66054913	     14.84331686	     -0.62422384	     -4.21202466	    -25.69922365	      9.41277667	    -11.42998566	    -10.24431675	      3.48542209	     -4.16160989
      5.03000000	     -0.07368946	     -8.79163469	    -89.44441457	      0.83473541	      0.92677506	      0.18547141	    -13.98913602	      7.62011813	      7.83302878	    -35.37891878	     -2.39142269	      1.79404359	     14.15537518	     -0.38249992	     -4.72810277	    -25.52885607	     10.06057629	    -11.84460647	    -10.03015210	      3.21876131	     -4.34217811
      5.04000000	      0.13036596	     -8.74607608	    -89.83276922	      0.83594377	      0.92797230	      0.19370782	    -13.37808025	      7.06385999	      7.31987130	    -36.76371160	     -4.55752350	      1.89856599	     13.46250676	     -0.13594986	     -5.26277415	    -25.31077224	     10.66379106	    -12.10004730	     -9.84959681	      2.95151829	     -4.52047106
      5.05000000	      0.31873708	     -8.71379438	    -90.22892985	      0.83713058	      0.92906260	      0.20164279	    -12.68560904	      6.50755018	      6.78663315	    -38.26226790	     -6.68188743	      2.02493135	     12.77407071	      0.09344822	     -5.81680927	    -25.08271202	     11.17607302	    -12.17194421	     -9.72698712	      2.71705583	     -4.68034593
      5.06000000	      0.48987834	     -8.72793270	    -90.59534992	      0.83835821	      0.93009625	      0.20930759	    -11.97007565	      5.96038801	      6.20498024	    -39.83437602	     -8.74414299	      2.50748517	     12.06439709	      0.31308784	     -6.36637354	    -24.86377272	     11.68745955	    -12.38349888	     -9.69387524	      2.52271107	     -4.89007783
      5.07000000	      0.67027698	     -8.74826500	    -90.95540190	      0.83954250	      0.93100981	      0.21666576	    -11.16937922	      5.40866596	      5.63620161	    -41.51720125	    -10.65761464	      3.21790879	     11.37543276	      0.55015065	     -6.88370508	    -24.64857321	     12.15339294	    -12.46602440	     -9.70590382	      2.32096527	     -5.10334056
      5.08000000	      0.84761132	     -8.78636488	    -91.28768485	      0.84073071	      0.93183527	      0.22371926	    -10.30927974	      4.86679195	      5.05692500	    -43.27521233	    -12.38459571	      4.19745299	     10.69686534	      0.79842927	     -7.34478138	    -24.43678104	     12.59149792	    -12.52620871	     -9.77354052	      2.12957889	     -5.32329095
      5.09000000	      1.02462593	     -8.83989474	    -91.57745464	      0.84193838	      0.93257839	      0.23045881	     -9.39769925	      4.33413135	      4.46007691	    -45.08171726	    -13.86685460	      5.33999934	     10.04332670	      1.06037776	     -7.74437251	    -24.24833533	     12.98296625	    -12.58632683	     -9.89351694	      1.94588108	     -5.58405028
      5.10000000	      1.20380957	     -8.89752962	    -91.82022189	      0.84316223	      0.93323586	      0.23688112	     -8.43323265	      3.80926581	      3.85217645	    -46.90615278	    -15.03390096	      6.54751892	      9.42275511	      1.33870254	     -8.07601715	    -24.07277157	     13.33984638	    -12.66172469	    -10.04752534	      1.76265485	     -5.87693412
      5.11000000	      1.36953517	     -8.95384664	    -92.03423741	      0.84437300	      0.93381139	      0.24297394	     -7.42174250	      3.30583460	      3.25832025	    -48.71222898	    -15.82340214	      7.73593621	      8.83560685	      1.61664298	     -8.32857826	    -23.90444696	     13.71563101	    -12.75836813	    -10.22953758	      1.59463292	     -6.15502660
      5.12000000	      1.54954398	     -8.99810374	    -92.20383164	      0.84558031	      0.93429081	      0.24872686	     -6.36017625	      2.78762153	      2.65001659	    -50.47143777	    -16.18952615	      8.63422690	      8.30877136	      1.91492535	     -8.54146477	    -23.76555285	     14.01270038	    -12.87387454	    -10.42316327	      1.41073142	     -6.49540852
      5.13000000	      1.71370734	     -9.02855210	    -92.35826180	      0.84675864	      0.93469143	      0.25415275	     -5.25982277	      2.27482108	      2.04075303	    -52.14089466	    -16.12003196	      9.23852000	      7.82916664	      2.20118017	     -8.70829741	    -23.63799695	     14.30362537	    -13.00223227	    -10.62637136	      1.24419264	     -6.80287802
      5.14000000	      1.86927852	     -9.05929547	    -92.51214008	      0.84787080	      0.93505405	      0.25928140	     -4.15091046	      1.76802380	      1.46702446	    -53.68298043	    -15.61119081	      9.46831277	      7.36123005	      2.48496818	     -8.82876281	    -23.48876927	     14.60239541	    -13.06861314	    -10.84837408	      1.08165972	     -7.07145099
      5.15000000	      1.99927400	     -9.05479762	    -92.63519667	      0.84897572	      0.93533114	      0.26413230	     -3.00712159	      1.27850605	      0.86962275	    -55.06940260	    -14.67127950	      9.51205358	      6.97962624	      2.73566125	     -8.93191693	    -23.38845422	     14.86113920	    -13.20125423	    -11.04228588	      0.95342510	     -7.36003883
      5.16000000	      2.11090431	     -8.99158087	    -92.73014062	      0.85008618	      0.93550817	      0.26875764	     -1.80709223	      0.80032762	      0.25474637	    -56.28978079	    -13.44409772	      9.18127857	      6.69672204	      2.96245875	     -9.01418806	    -23.31891037	     15.12187490	    -13.47790904	    -11.17247372	      0.85501396	     -7.67196019
      5.17000000	      2.19395959	     -8.97367356	    -92.82675586	      0.85113608	      0.93579397	      0.27322152	     -0.69817749	      0.35712680	     -0.31571076	    -57.29031884	    -11.90848417	      8.80206381	      6.35821653	      3.15767898	     -9.09062439	    -23.21752036	     15.32306100	    -13.61026372	    -11.35785292	      0.78478750	     -7.93940421
      5.18000000	      2.23684104	     -8.95245948	    -92.91502186	      0.85215623	      0.93611453	      0.27756354	      0.36928802	     -0.03339162	     -0.85768135	    -58.07045479	    -10.20713391	      8.31346107	      6.02344109	      3.30835217	     -9.14923355	    -23.10317682	     15.55017471	    -13.75078643	    -11.53088787	      0.76406973	     -8.18778062
      5.19000000	      2.22125762	     -8.95970338	    -93.01505787	      0.85309616	      0.93655738	      0.28179612	      1.34047482	     -0.32654461	     -1.31329276	    -58.60115925	     -8.37885290	      8.01983294	      5.63854154	      3.39654806	     -9.18701221	    -22.94465989	     15.74654564	    -13.81499403	    -11.73537392	      0.80666024	     -8.39183811
      5.20000000	      2.21609504	     -8.95829498	    -93.10382340	      0.85401975	      0.93698422	      0.28590509	      2.28251964	     -0.63158439	     -1.76443705	    -58.94399033	     -6.53138008	      7.57112112	      5.28862180	      3.48465013	     -9.26863923	    -22.81886786	     15.94820222	    -13.93112981	    -11.92256522	      0.83917374	     -8.62868372
      5.21000000	      2.15947589	     -8.97049675	    -93.20805435	      0.85486939	      0.93749535	      0.28990596	      3.13554655	     -0.85082054	     -2.14726339	    -59.03961298	     -4.64434579	      7.27450841	      4.90627959	      3.51925828	     -9.32935307	    -22.65200089	     16.13795537	    -14.00126948	    -12.12569836	      0.92660853	     -8.79690836
      5.22000000	      2.10239442	     -8.98277703	    -93.31608238	      0.85568233	      0.93801781	      0.29379628	      3.92767600	     -1.06775024	     -2.51536551	    -58.92518561	     -2.76377226	      7.08586175	      4.53001526	      3.54939603	     -9.40954682	    -22.48366339	     16.29914127	    -14.04601160	    -12.32559080	      1.01226899	     -8.92660224
      5.23000000	      2.02796365	     -8.98639732	    -93.43339192	      0.85643044	      0.93855063	      0.29761515	      4.65209891	     -1.26023972	     -2.86998561	    -58.58399146	     -0.91763771	      6.82202690	      4.15155946	      3.56174622	     -9.47532689	    -22.28725703	     16.44608888	    -14.11114079	    -12.50201217	      1.11366097	     -9.05087104
      5.24000000	      1.94124543	     -8.98839873	    -93.54266530	      0.85715724	      0.93908949	      0.30135288	      5.29269446	     -1.44685079	     -3.24916918	    -58.01451427	      0.88418622	      6.55219300	      3.78083276	      3.55871865	     -9.54057144	    -22.09367636	     16.59107184	    -14.16455298	    -12.66995672	      1.22833789	     -9.15135092
      5.25000000	      1.84325512	     -8.98428088	    -93.63838854	      0.85786328	      0.93962172	      0.30500260	      5.85255320	     -1.63192291	     -3.66963456	    -57.22441272	      2.62415163	      6.18227942	      3.42198222	      3.54359039	     -9.58636723	    -21.89750840	     16.73188068	    -14.21924489	    -12.82584111	      1.35786514	     -9.24403246
